# xmcd
#
# Track frame offsets: 
#        182
#        13330
#        31127
#        42680
#        57832
#        69155
#        80180
#        92780
#        109350
#        127642
#        146707
#        159845
#        175600
#        194080
#        209095
#        223352
#        236857
#        254182
#        270545
#        279382
#        290862
#        306700
#
# Disc length: 4266 seconds
#
# Revision: 5
# Processed by: cddbd v1.5.2PL0 Copyright (c) Steve Scherf et al.
# Submitted via: ExactAudioCopy v1.0b2
#
DISCID=6a10a816
DTITLE=Various Artist - The Very Best Of Country Volume 4
DYEAR=1995
DGENRE=Country
TTITLE0=Dolly Parton - I Will Always Love You
TTITLE1=Dobie Gray - Drift Away
TTITLE2=Crystal Gayle - Don't It Make Your Brown Eyes Blue
TTITLE3=Roger Whittaker - When I Need You
TTITLE4=Don Gibson - Oh Lonesome Me
TTITLE5=B.W. Stevenson - My Maria
TTITLE6=Bellamy Brothers - Let Your Love Flow
TTITLE7=Geraldine - Here I Go Again
TTITLE8=Don Williams - I Believe In You
TTITLE9=Bobby Gentry - Ode To Billy Joe
TTITLE10=Conway Twitty - Danny Boy
TTITLE11=Kenny Rogers - The Gambler
TTITLE12=Kris Kristofferson - Me And Bobby McGee
TTITLE13=Alabama - Love In The First Degree
TTITLE14=Frankie Miller - Darlin'
TTITLE15=Loretta Lynn - Coal Miners Daughter
TTITLE16=Fureys - Sweet Sixteen
TTITLE17=Steve Warner - Tips Of My Fingers
TTITLE18=Mac Davis - Hard To Be Humble
TTITLE19=Slim Whitman - Happy Anniversary
TTITLE20=Clay Walker - Dreaming With My Eyes Open
TTITLE21=Waylon Jennings - Good Hearted Woman
EXTD=
EXTT0=Parton, Dolly
EXTT1=Gray, Dobie 
EXTT2=Gayle, Crystal
EXTT3=Whittaker, Roger
EXTT4=Gibson, Don
EXTT5=Stevenson, B.W.
EXTT6=Bellamy Brothers
EXTT7=Geraldine
EXTT8=Williams, Don
EXTT9=Gentry, Bobby
EXTT10=Twitty, Conway
EXTT11=Rogers, Kenny
EXTT12=Kristofferson, Kris
EXTT13=Alabama
EXTT14=Miller, Frankie
EXTT15=Lynn, Loretta
EXTT16=Fureys
EXTT17=Warner, Steve
EXTT18=Davis, Mac
EXTT19=Whitman, Slim
EXTT20=Walker, Clay
EXTT21=Waylon
PLAYORDER=
